<svg width="18" height="17" viewBox="0 0 18 17" fill="none" xmlns="http://www.w3.org/2000/svg">
<path d="M3.62 7.50404C5.06 10.1184 7.38 12.2524 10.21 13.5919L12.41 11.5595C12.68 11.3101 13.08 11.227 13.43 11.3378C14.55 11.6796 15.76 11.8644 17 11.8644C17.55 11.8644 18 12.2801 18 12.7882V16.0123C18 16.5204 17.55 16.9361 17 16.9361C7.61 16.9361 0 9.90593 0 1.23142C0 0.723328 0.45 0.307617 1 0.307617H4.5C5.05 0.307617 5.5 0.723328 5.5 1.23142C5.5 2.38617 5.7 3.49474 6.07 4.52939C6.18 4.85273 6.1 5.21301 5.82 5.47167L3.62 7.50404Z" fill="#F4911F"/>
</svg>
