<svg width="18" height="19" viewBox="0 0 18 19" fill="none" xmlns="http://www.w3.org/2000/svg">
<path d="M9 6C10.6543 6 12 7.34571 12 9C12 10.6543 10.6543 12 9 12C7.34571 12 6 10.6543 6 9C6 7.34571 7.34571 6 9 6ZM12.8829 6.32571L16.2857 2.93143V5.14286H18V0H12.8571V1.71429H15.0686L11.6657 5.11714C10.9114 4.59429 9.99429 4.28571 9 4.28571C8.00571 4.28571 7.08857 4.59429 6.33429 5.11714L5.77714 4.56L6.98571 3.35143L5.77714 2.13429L4.56 3.34286L2.93143 1.71429H5.14286V0H0V5.14286H1.71429V2.93143L3.35143 4.56L2.13429 5.77714L3.34286 6.98571L4.55143 5.77714L5.10857 6.33429C4.59429 7.08857 4.28571 8.00571 4.28571 9C4.28571 11.3143 5.94857 13.2343 8.14286 13.6371V15.4286H6.42857V17.1429H8.14286V18.8571H9.85714V17.1429H11.5714V15.4286H9.85714V13.6371C12.0514 13.2343 13.7143 11.3143 13.7143 9C13.7143 8.00571 13.4057 7.08857 12.8829 6.32571Z" fill="#F4911F"/>
</svg>
