<svg width="34" height="34" viewBox="0 0 34 34" fill="none" xmlns="http://www.w3.org/2000/svg">
<path d="M15.3 20.4H11.9C11.9 11.951 18.751 5.1 27.2 5.1V8.5C20.621 8.5 15.3 13.821 15.3 20.4ZM27.2 15.3V11.9C22.508 11.9 18.7 15.708 18.7 20.4H22.1C22.1 17.578 24.378 15.3 27.2 15.3ZM8.5 3.4C8.5 1.513 6.987 0 5.1 0C3.213 0 1.7 1.513 1.7 3.4C1.7 5.287 3.213 6.8 5.1 6.8C6.987 6.8 8.5 5.287 8.5 3.4ZM16.065 4.25H12.665C12.257 6.664 10.183 8.5 7.65 8.5H2.55C1.139 8.5 0 9.639 0 11.05V15.3H10.2V11.458C13.362 10.455 15.725 7.667 16.065 4.25ZM28.9 25.5C30.787 25.5 32.3 23.987 32.3 22.1C32.3 20.213 30.787 18.7 28.9 18.7C27.013 18.7 25.5 20.213 25.5 22.1C25.5 23.987 27.013 25.5 28.9 25.5ZM31.45 27.2H26.35C23.817 27.2 21.743 25.364 21.335 22.95H17.935C18.275 26.367 20.638 29.155 23.8 30.158V34H34V29.75C34 28.339 32.861 27.2 31.45 27.2Z" fill="#F4911F"/>
</svg>
