<svg width="83" height="83" viewBox="0 0 83 83" fill="none" xmlns="http://www.w3.org/2000/svg">
<circle cx="41.5" cy="41.5" r="41.5" fill="white"/>
<path d="M40.3 45.4H36.9C36.9 36.951 43.751 30.1 52.2 30.1V33.5C45.621 33.5 40.3 38.821 40.3 45.4ZM52.2 40.3V36.9C47.508 36.9 43.7 40.708 43.7 45.4H47.1C47.1 42.578 49.378 40.3 52.2 40.3ZM33.5 28.4C33.5 26.513 31.987 25 30.1 25C28.213 25 26.7 26.513 26.7 28.4C26.7 30.287 28.213 31.8 30.1 31.8C31.987 31.8 33.5 30.287 33.5 28.4ZM41.065 29.25H37.665C37.257 31.664 35.183 33.5 32.65 33.5H27.55C26.139 33.5 25 34.639 25 36.05V40.3H35.2V36.458C38.362 35.455 40.725 32.667 41.065 29.25ZM53.9 50.5C55.787 50.5 57.3 48.987 57.3 47.1C57.3 45.213 55.787 43.7 53.9 43.7C52.013 43.7 50.5 45.213 50.5 47.1C50.5 48.987 52.013 50.5 53.9 50.5ZM56.45 52.2H51.35C48.817 52.2 46.743 50.364 46.335 47.95H42.935C43.275 51.367 45.638 54.155 48.8 55.158V59H59V54.75C59 53.339 57.861 52.2 56.45 52.2Z" fill="#F4911F"/>
</svg>
