<svg width="34" height="36" viewBox="0 0 34 36" fill="none" xmlns="http://www.w3.org/2000/svg">
<path d="M7.72763 13.9092H4.63672V24.7274H7.72763V13.9092Z" fill="#F4911F"/>
<path d="M17.0001 13.9092H13.9092V24.7274H17.0001V13.9092Z" fill="#F4911F"/>
<path d="M30.9091 7.72727L15.4545 0L0 7.72727V10.8182H30.9091V7.72727Z" fill="#F4911F"/>
<path d="M0 27.8184V30.9093H19.1636C18.8391 29.9202 18.6691 28.8847 18.6073 27.8184H0Z" fill="#F4911F"/>
<path d="M26.2725 17.4019V13.9092H23.1816V18.9474L26.2725 17.4019Z" fill="#F4911F"/>
<path d="M27.8185 20.0908L21.6367 23.1817V27.1226C21.6367 31.0172 24.2794 34.6645 27.8185 35.5454C31.3576 34.6645 34.0004 31.0172 34.0004 27.1226V23.1817L27.8185 20.0908ZM26.7058 30.909L23.5685 27.7717L25.2067 26.1335L26.7058 27.6326L30.4304 23.9545L32.0685 25.5926L26.7058 30.909Z" fill="#F4911F"/>
</svg>
